<svg width="165" height="40" viewBox="0 0 165 40" fill="none" xmlns="http://www.w3.org/2000/svg">
<path d="M62.8881 10.0374H57.8961C57.8196 10.0374 57.7555 9.97935 57.7432 9.90291C57.5904 8.87563 57.1593 8.05318 56.4501 7.43865C55.7103 6.79354 54.7413 6.47251 53.546 6.47251C51.9594 6.47251 50.7153 7.0473 49.8134 8.19688C48.9116 9.34647 48.4592 10.9608 48.4592 13.0337C48.4592 15.1922 48.9147 16.8249 49.8226 17.9347C50.7305 19.0415 51.9625 19.5949 53.5124 19.5949C54.6649 19.5949 55.6156 19.3014 56.3645 18.7143C57.0799 18.1518 57.5384 17.3752 57.7371 16.3907C57.7524 16.3173 57.8135 16.2623 57.89 16.2623L62.8881 16.2929C62.9859 16.2929 63.0623 16.3785 63.0501 16.4733C62.937 17.3752 62.6619 18.2649 62.2309 19.1454C61.7692 20.0841 61.1365 20.934 60.3264 21.6953C59.5163 22.4566 58.535 23.065 57.3794 23.5206C56.227 23.9761 54.9033 24.2054 53.4084 24.2054C51.4398 24.2054 49.6789 23.7713 48.126 22.903C46.5731 22.0347 45.3472 20.7689 44.4485 19.1057C43.5497 17.4425 43.1003 15.4185 43.1003 13.0306C43.1003 10.6306 43.5558 8.60046 44.4699 6.94029C45.3839 5.28012 46.6189 4.01741 48.1749 3.15523C49.7309 2.29304 51.4764 1.85889 53.4084 1.85889C55.1631 1.85889 56.7344 2.17991 58.1223 2.81891C59.5101 3.46097 60.6351 4.38736 61.5033 5.60726C62.3409 6.78131 62.8545 8.19688 63.0501 9.854C63.0623 9.94878 62.9859 10.0374 62.8881 10.0374Z" fill="#004171"/>
<path d="M75.4645 16.8645V7.75347C75.4645 7.6648 75.5348 7.59448 75.6234 7.59448H80.4871C80.5757 7.59448 80.6461 7.6648 80.6461 7.75347V23.7467C80.6461 23.8354 80.5757 23.9057 80.4871 23.9057H75.8588C75.7702 23.9057 75.6999 23.8354 75.6999 23.7467V20.8697H75.5287C75.168 21.8664 74.5535 22.6583 73.6884 23.2423C72.8202 23.8262 71.7747 24.1197 70.5519 24.1197C69.4331 24.1197 68.4548 23.866 67.6172 23.3554C66.7796 22.8448 66.1254 22.1294 65.6577 21.2091C65.19 20.2888 64.9546 19.2157 64.9454 17.9927V7.75347C64.9454 7.6648 65.0157 7.59448 65.1044 7.59448H69.9772C70.0659 7.59448 70.1362 7.6648 70.1362 7.75347V16.9715C70.1423 17.8551 70.3777 18.5553 70.8362 19.0628C71.2978 19.5734 71.9214 19.8272 72.7163 19.8272C73.4866 19.8272 74.1378 19.5703 74.6697 19.0567C75.2016 18.543 75.4645 17.8123 75.4645 16.8645Z" fill="#004171"/>
<path d="M83.4706 23.7467V7.7534C83.4706 7.66473 83.5409 7.59441 83.6295 7.59441H88.3556C88.4443 7.59441 88.5146 7.66473 88.5146 7.7534V10.5662H88.6858C88.9823 9.49 89.4683 8.68896 90.1409 8.16003C90.8134 7.63416 91.596 7.36816 92.4886 7.36816C92.9197 7.36816 93.3293 7.42014 93.7206 7.52715C94.0599 7.61887 94.3717 7.74117 94.653 7.89404C94.7233 7.93073 94.7508 8.01633 94.7263 8.09277L93.2437 12.2325C93.0175 12.1255 92.776 12.0338 92.5161 11.9512C92.2563 11.8687 91.972 11.8289 91.6602 11.8289C90.847 11.8289 90.1439 12.1224 89.557 12.7094C88.9701 13.2965 88.6735 14.0761 88.6644 15.0453V23.7436C88.6644 23.8323 88.5941 23.9026 88.5054 23.9026H83.6326C83.5409 23.9057 83.4706 23.8323 83.4706 23.7467Z" fill="#004171"/>
<path d="M102.675 24.2115C100.113 24.2115 98.0952 23.4655 96.6279 21.9704C95.1606 20.4754 94.4238 18.4238 94.4238 15.8128C94.4238 14.1282 94.757 12.6545 95.4204 11.3888C96.0868 10.126 97.0223 9.14156 98.2328 8.4353C99.4434 7.7321 100.871 7.37744 102.513 7.37744C104.056 7.37744 105.423 7.69847 106.612 8.33747C107.801 8.97952 108.73 9.91814 109.403 11.1564C110.076 12.3946 110.412 13.9111 110.412 15.6997V16.837C110.412 16.9257 110.341 16.996 110.253 16.996H99.5412V17.1336C99.5412 18.1334 99.8286 18.9344 100.406 19.5428C100.984 20.1513 101.77 20.457 102.769 20.457C103.448 20.457 104.041 20.3133 104.542 20.0259C105.013 19.7569 105.349 19.3777 105.554 18.8886C105.579 18.8305 105.637 18.7877 105.701 18.7907L110.167 18.9191C110.268 18.9222 110.345 19.017 110.323 19.1148C109.996 20.6252 109.189 21.842 107.899 22.7623C106.551 23.7345 104.811 24.2115 102.675 24.2115ZM99.5412 13.9875H105.582C105.576 13.1529 105.294 12.468 104.738 11.933C104.182 11.3979 103.476 11.1319 102.62 11.1319C101.754 11.1319 101.036 11.404 100.458 11.9483C99.8836 12.4925 99.5748 13.1743 99.5412 13.9875Z" fill="#004171"/>
<path d="M113.065 23.7468V2.31743C113.065 2.22877 113.135 2.15845 113.224 2.15845H122.132C124.575 2.15845 126.421 2.66598 127.668 3.67798C128.919 4.68998 129.542 6.01689 129.542 7.65872C129.542 8.89696 129.163 9.93037 128.405 10.7589C127.647 11.5875 126.672 12.1256 125.473 12.3732V12.5842C126.351 12.6209 127.164 12.8563 127.91 13.2905C128.656 13.7246 129.258 14.3269 129.71 15.0943C130.163 15.8617 130.389 16.7698 130.389 17.8185C130.389 18.9864 130.093 20.029 129.496 20.9462C128.9 21.8634 128.041 22.585 126.916 23.1139C125.791 23.6398 124.425 23.9058 122.817 23.9058H113.218C113.139 23.9058 113.065 23.8324 113.065 23.7468ZM118.32 11.0983H121.23C122.092 11.0983 122.802 10.8873 123.355 10.4624C123.908 10.0374 124.183 9.44424 124.183 8.67989C124.183 7.95834 123.924 7.38661 123.41 6.96468C122.893 6.54276 122.196 6.3318 121.319 6.3318H118.326V11.0983H118.32ZM118.32 19.6682H121.57C122.71 19.6682 123.551 19.4511 124.092 19.02C124.633 18.5889 124.905 17.9866 124.905 17.2162C124.905 16.3815 124.617 15.718 124.04 15.2258C123.462 14.7335 122.67 14.489 121.667 14.489H118.323V19.6682H118.32Z" fill="#004171"/>
<path d="M137.27 24.1809C135.714 24.1809 134.43 23.7835 133.422 22.9916C132.413 22.1997 131.908 20.9951 131.908 19.3808C131.908 18.1762 132.183 17.2192 132.737 16.5099C133.29 15.7975 134.024 15.2716 134.944 14.9262C135.864 14.5837 136.873 14.3667 137.97 14.2719C139.364 14.1526 140.358 14.0028 140.948 13.8255C141.538 13.6482 141.834 13.3119 141.834 12.8166V12.7646C141.834 12.2204 141.648 11.7984 141.272 11.5019C140.896 11.2053 140.391 11.0555 139.753 11.0555C139.065 11.0555 138.514 11.2053 138.096 11.5019C137.71 11.777 137.457 12.1439 137.328 12.6117C137.31 12.682 137.246 12.734 137.175 12.7309L132.694 12.572C132.596 12.5689 132.523 12.4772 132.538 12.3824C132.777 10.976 133.483 9.80195 134.66 8.86027C135.888 7.87579 137.597 7.38354 139.792 7.38354C141.18 7.38354 142.415 7.59756 143.503 8.0256C144.589 8.45364 145.448 9.07123 146.074 9.87839C146.701 10.6855 147.013 11.667 147.013 12.8196V23.7468C147.013 23.8354 146.942 23.9058 146.854 23.9058H142.287C142.198 23.9058 142.128 23.8354 142.128 23.7468V21.6341H141.999C141.101 23.331 139.52 24.1809 137.27 24.1809ZM138.872 20.7841C139.701 20.7841 140.407 20.5365 140.991 20.0412C141.574 19.5459 141.868 18.9008 141.868 18.1089V16.5588C141.578 16.7147 141.168 16.8462 140.642 16.9532C140.116 17.0602 139.612 17.1489 139.129 17.2192C137.594 17.4516 136.824 18.0906 136.824 19.1301C136.824 19.6682 137.017 20.0779 137.399 20.3622C137.781 20.6404 138.273 20.7841 138.872 20.7841Z" fill="#004171"/>
<path d="M152.237 30.2653C151.528 30.2653 150.926 30.201 150.427 30.0726C149.999 29.9626 149.642 29.8556 149.357 29.7516C149.278 29.7241 149.241 29.6385 149.263 29.559L150.323 25.9054C150.348 25.8198 150.439 25.7739 150.525 25.8014C151.216 26.0185 151.806 26.0919 152.301 26.0216C152.833 25.9482 153.24 25.6211 153.521 25.0401L153.735 24.499L148.009 7.80557C147.972 7.70162 148.049 7.59461 148.159 7.59461H153.249C153.322 7.59461 153.383 7.64353 153.402 7.71385L156.376 19.2311H156.547L159.565 7.71079C159.583 7.64047 159.647 7.59155 159.717 7.59155H164.841C164.951 7.59155 165.027 7.69856 164.991 7.80251L158.904 25.5171C158.452 26.841 157.684 27.963 156.599 28.8833C155.517 29.8066 154.062 30.2653 152.237 30.2653Z" fill="#004171"/>
<path d="M32.251 32.2189L32.1012 32.0691C32.0095 32.1608 31.8781 32.2189 31.7374 32.2189H24.1195H16.4037C16.4404 32.2984 16.4862 32.3687 16.5474 32.4329L23.9024 39.789C24.0369 39.9236 24.2234 40 24.4129 40H38.7929C39.1292 40 39.4349 39.8655 39.6581 39.6453C39.6611 39.6423 39.6642 39.6392 39.6642 39.6392L32.251 32.2189Z" fill="#00664C"/>
<path d="M13.0135 16.8188C13.0135 16.5345 12.7843 16.3052 12.5 16.3052H0.204834C0.241518 16.3816 0.287373 16.455 0.348512 16.5161L7.70358 23.8722C7.76472 23.9334 7.83809 23.9823 7.91757 24.019V24.0221C7.91757 24.0221 7.92369 24.0251 7.92674 24.0251C8.01845 24.0649 8.11627 24.0863 8.21715 24.0863H13.0166V16.8188H13.0135Z" fill="#005D8D"/>
<path d="M24.0523 7.94918C24.0157 7.86969 23.9698 7.79937 23.9087 7.73516L16.5505 0.382107C16.4894 0.320959 16.416 0.27204 16.3365 0.235352V7.74739V7.76573V12.5353C16.3365 12.8196 16.5658 13.0489 16.8501 13.0489H24.1165V8.2488C24.1165 8.14485 24.0921 8.0409 24.0523 7.94918Z" fill="#42BA85"/>
<path d="M13.0808 0H1.23195C0.895688 0 0.589991 0.134526 0.366832 0.354659C0.363775 0.357716 0.360718 0.360774 0.360718 0.360774L7.77999 7.78109L7.92978 7.9309C8.02149 7.83918 8.14988 7.78109 8.29356 7.78109H12.6773H13.0777V0H13.0808Z" fill="#005D8D"/>
<path d="M0.586938 0.587088L0.360723 0.36084C0.137564 0.58403 0 0.892828 0 1.2322V13.0827H7.77999V12.78V8.29786C7.77999 8.15416 7.83807 8.02575 7.93284 7.93403L0.586938 0.587088Z" fill="#00B2DD"/>
<path d="M39.817 23.8723L32.4619 16.5161C32.4008 16.455 32.3274 16.4061 32.2479 16.3694V24.0832V25.9024V31.7023C32.2479 31.846 32.1899 31.9744 32.0981 32.0661L39.2392 39.2082L39.6703 39.6393C39.8934 39.4161 40.031 39.1073 40.031 38.7679V24.3859C40.0279 24.1933 39.9546 24.0098 39.817 23.8723Z" fill="#42BA85"/>
<path d="M24.1165 32.219V32.2006V24.0863V16.3052H16.8532C16.5689 16.3052 16.3396 16.5345 16.3396 16.8188V31.9193C16.3396 32.0233 16.3641 32.1272 16.4069 32.219V32.222L24.1165 32.219Z" fill="#42BA85"/>
<path d="M32.2514 16.3694L32.2453 16.3663C32.1535 16.3266 32.0557 16.3052 31.9548 16.3052H16.8534C16.7128 16.3052 16.5844 16.3633 16.4896 16.455L24.1168 24.0832H32.2483L32.2514 16.3694Z" fill="#00664C"/>
<path d="M55.2125 32.1271V33.0168H54.1974V37.0128H53.0448V33.0168H52.3232V32.1271H53.0448V31.6654C53.0448 31.3383 53.1121 31.0631 53.2496 30.8461C53.3872 30.629 53.5707 30.4639 53.803 30.3569C54.0354 30.2499 54.2922 30.1948 54.5735 30.1948C54.7722 30.1948 54.9496 30.2101 55.1055 30.2437C55.2614 30.2743 55.3745 30.3049 55.4479 30.3294L55.2156 31.2191C55.1697 31.2038 55.1086 31.1885 55.0352 31.1732C54.9618 31.1579 54.8792 31.1487 54.7875 31.1487C54.5735 31.1487 54.4206 31.2007 54.332 31.3016C54.2433 31.4056 54.1974 31.5523 54.1974 31.7419V32.1271H55.2125Z" fill="#004070"/>
<path d="M58.2753 37.1077C57.7984 37.1077 57.3856 37.0037 57.034 36.7928C56.6855 36.5818 56.4134 36.2883 56.2207 35.9092C56.0281 35.5301 55.9333 35.0898 55.9333 34.5884C55.9333 34.0839 56.0281 33.6406 56.2207 33.2645C56.4134 32.8854 56.6824 32.5919 57.034 32.381C57.3826 32.17 57.7984 32.063 58.2753 32.063C58.7523 32.063 59.1681 32.17 59.5166 32.381C59.8682 32.5919 60.1373 32.8854 60.3299 33.2645C60.5194 33.6437 60.6173 34.0839 60.6173 34.5884C60.6173 35.0898 60.5225 35.5301 60.3299 35.9092C60.1403 36.2883 59.8682 36.5818 59.5166 36.7928C59.1681 37.0037 58.7523 37.1077 58.2753 37.1077ZM58.2814 36.1844C58.5413 36.1844 58.7584 36.114 58.9327 35.9704C59.1069 35.8297 59.2353 35.6371 59.3209 35.3925C59.4066 35.151 59.4494 34.8789 59.4494 34.5823C59.4494 34.2827 59.4066 34.0136 59.3209 33.769C59.2353 33.5275 59.1069 33.3318 58.9327 33.1881C58.7584 33.0444 58.5444 32.971 58.2814 32.971C58.0185 32.971 57.7984 33.0444 57.6241 33.1881C57.4498 33.3318 57.3184 33.5244 57.2297 33.769C57.141 34.0136 57.0982 34.2827 57.0982 34.5823C57.0982 34.8789 57.141 35.1479 57.2297 35.3925C57.3153 35.634 57.4468 35.8267 57.6241 35.9704C57.8014 36.114 58.0185 36.1844 58.2814 36.1844Z" fill="#004070"/>
<path d="M61.8059 37.0127V32.127H62.9219V32.9402H62.9738C63.0625 32.6559 63.2154 32.4388 63.4324 32.2859C63.6495 32.1331 63.8972 32.0566 64.1815 32.0566C64.313 32.0566 64.4353 32.0719 64.5453 32.1056C64.6554 32.1361 64.7532 32.182 64.8389 32.237L64.4811 33.1909C64.42 33.1604 64.3527 33.1359 64.2763 33.1176C64.2029 33.0992 64.1173 33.09 64.0256 33.09C63.726 33.09 63.4722 33.1879 63.2673 33.3836C63.0625 33.5792 62.9616 33.833 62.9616 34.1418V37.0157H61.8059V37.0127Z" fill="#004070"/>
<path d="M69.5709 37.1106C69.1031 37.1106 68.7148 36.9853 68.403 36.7346C68.0911 36.4839 67.9352 36.1201 67.9352 35.64C67.9352 35.2731 68.0238 34.9888 68.2012 34.787C68.3785 34.5852 68.6078 34.4385 68.8921 34.3437C69.1765 34.252 69.4761 34.1878 69.791 34.1541C70.2221 34.1083 70.5309 34.0655 70.7174 34.0227C70.9039 33.9829 70.9987 33.879 70.9987 33.7139V33.6955C70.9987 33.4571 70.9284 33.2705 70.7847 33.1391C70.641 33.0076 70.4392 32.9403 70.1701 32.9403C69.8889 32.9403 69.6657 33.0015 69.5006 33.1238C69.3355 33.2461 69.2254 33.3928 69.1673 33.561L68.0911 33.4081C68.2195 32.9618 68.4672 32.6254 68.8371 32.3992C69.2071 32.1729 69.6504 32.0598 70.161 32.0598C70.3933 32.0598 70.6287 32.0873 70.8611 32.1424C71.0935 32.1974 71.3075 32.2891 71.5032 32.4175C71.6958 32.5459 71.8517 32.7172 71.971 32.9342C72.0902 33.1513 72.1483 33.4204 72.1483 33.7414V37.0128H71.0415V36.3402H71.0018C70.8978 36.545 70.7296 36.7254 70.4942 36.8783C70.2649 37.0342 69.9531 37.1106 69.5709 37.1106ZM69.8705 36.2668C70.2191 36.2668 70.4942 36.1659 70.6991 35.9672C70.9039 35.7684 71.0048 35.533 71.0048 35.2609V34.6831C70.9559 34.7228 70.8672 34.7595 70.7358 34.7901C70.6043 34.8207 70.4667 34.8482 70.32 34.8696C70.1732 34.891 70.0509 34.9093 69.947 34.9246C69.6901 34.9613 69.4761 35.0316 69.3049 35.1356C69.1337 35.2395 69.0481 35.4046 69.0481 35.6247C69.0481 35.8357 69.1245 35.9978 69.2804 36.1048C69.4333 36.2118 69.629 36.2668 69.8705 36.2668Z" fill="#004070"/>
<path d="M77.1153 34.1481V37.0129H75.9626V30.4976H77.0878V32.9557H77.1459C77.259 32.6775 77.4363 32.4604 77.6748 32.3014C77.9163 32.1424 78.2251 32.0629 78.5981 32.0629C79.1057 32.0629 79.5123 32.2219 79.8211 32.5399C80.1299 32.8579 80.2827 33.3134 80.2827 33.9004V37.0129H79.1301V34.0808C79.1301 33.7537 79.0445 33.4969 78.8764 33.3134C78.7082 33.13 78.4728 33.0383 78.167 33.0383C77.8582 33.0383 77.6075 33.1361 77.4088 33.3287C77.2162 33.5213 77.1153 33.7965 77.1153 34.1481Z" fill="#004070"/>
<path d="M83.8318 37.1077C83.3426 37.1077 82.9207 37.0037 82.563 36.7989C82.2083 36.5941 81.9362 36.3036 81.7436 35.9275C81.554 35.5515 81.4562 35.1082 81.4562 34.5976C81.4562 34.0962 81.5509 33.6528 81.7436 33.2737C81.9331 32.8946 82.2022 32.595 82.5507 32.384C82.8993 32.17 83.3028 32.063 83.7706 32.063C84.1711 32.063 84.5411 32.1486 84.8805 32.3229C85.2198 32.4971 85.492 32.7631 85.6968 33.127C85.9016 33.4908 86.0025 33.9586 86.0025 34.5303V34.8819H82.5996C82.6058 35.3008 82.7219 35.6249 82.9482 35.8603C83.1744 36.0926 83.4741 36.2088 83.8471 36.2088C84.0947 36.2088 84.3087 36.1538 84.4922 36.0468C84.6726 35.9398 84.804 35.7838 84.8805 35.579L85.9567 35.6982C85.8558 36.1232 85.6173 36.4626 85.2443 36.7194C84.8744 36.9793 84.4035 37.1077 83.8318 37.1077ZM82.6058 34.1084H84.9019C84.8988 33.7751 84.7979 33.5 84.5931 33.2859C84.3882 33.0689 84.1192 32.9619 83.789 32.9619C83.4465 32.9619 83.1653 33.075 82.9512 33.3012C82.7372 33.5275 82.621 33.7965 82.6058 34.1084Z" fill="#004070"/>
<path d="M88.6004 37.1106C88.1327 37.1106 87.7444 36.9853 87.4325 36.7346C87.1206 36.4839 86.9647 36.1201 86.9647 35.64C86.9647 35.2731 87.0534 34.9888 87.2307 34.787C87.408 34.5852 87.6374 34.4385 87.9217 34.3437C88.206 34.252 88.5057 34.1878 88.8206 34.1541C89.2517 34.1083 89.5605 34.0655 89.747 34.0227C89.9335 33.9829 90.0282 33.879 90.0282 33.7139V33.6955C90.0282 33.4571 89.9579 33.2705 89.8142 33.1391C89.6736 33.0076 89.4687 32.9403 89.1997 32.9403C88.9184 32.9403 88.6952 33.0015 88.5301 33.1238C88.365 33.2461 88.2549 33.3928 88.1969 33.561L87.1207 33.4081C87.2491 32.9618 87.4967 32.6254 87.8667 32.3992C88.2366 32.1729 88.6769 32.0598 89.1905 32.0598C89.4229 32.0598 89.6583 32.0873 89.8907 32.1424C90.123 32.1974 90.337 32.2891 90.5327 32.4175C90.7253 32.5459 90.8813 32.7172 91.0005 32.9342C91.1197 33.1513 91.1778 33.4204 91.1778 33.7414V37.0128H90.071V36.3402H90.0313C89.9274 36.545 89.7592 36.7254 89.5238 36.8783C89.2914 37.0342 88.9826 37.1106 88.6004 37.1106ZM88.897 36.2668C89.2456 36.2668 89.5207 36.1659 89.7256 35.9672C89.9304 35.7684 90.0313 35.533 90.0313 35.2609V34.6831C89.9824 34.7228 89.8937 34.7595 89.7622 34.7901C89.6308 34.8207 89.4932 34.8482 89.3464 34.8696C89.1997 34.891 89.0774 34.9093 88.9734 34.9246C88.7166 34.9613 88.5026 35.0316 88.3314 35.1356C88.1602 35.2395 88.0746 35.4046 88.0746 35.6247C88.0746 35.8357 88.151 35.9978 88.3069 36.1048C88.4598 36.2118 88.6585 36.2668 88.897 36.2668Z" fill="#004070"/>
<path d="M93.7054 30.4976V37.0129H92.5527V30.4976H93.7054Z" fill="#004070"/>
<path d="M97.5455 32.127V33.0167H96.5824V35.5422C96.5824 35.7745 96.6344 35.9243 96.7353 35.9977C96.8362 36.0711 96.9615 36.1078 97.1052 36.1078C97.1755 36.1078 97.2428 36.1017 97.3039 36.0925C97.3651 36.0833 97.4109 36.0711 97.4415 36.065L97.6341 36.9639C97.573 36.9853 97.4843 37.0097 97.3712 37.0342C97.2581 37.0586 97.1205 37.0739 96.9554 37.08C96.5212 37.0923 96.1605 36.9853 95.867 36.7621C95.5734 36.5358 95.4267 36.1934 95.4298 35.7348V33.0167H94.7357V32.127H95.4298V30.9561H96.5824V32.127H97.5455Z" fill="#004070"/>
<path d="M99.9755 34.1481V37.0129H98.8229V30.4976H99.948V32.9557H100.006C100.119 32.6775 100.293 32.4604 100.535 32.3014C100.777 32.1424 101.082 32.0629 101.458 32.0629C101.966 32.0629 102.373 32.2219 102.681 32.5399C102.99 32.8579 103.143 33.3134 103.143 33.9004V37.0129H101.99V34.0808C101.99 33.7537 101.905 33.4969 101.737 33.3134C101.568 33.13 101.333 33.0383 101.027 33.0383C100.718 33.0383 100.468 33.1361 100.269 33.3287C100.076 33.5213 99.9755 33.7965 99.9755 34.1481Z" fill="#004070"/>
<path d="M105.108 31.4331C104.925 31.4331 104.766 31.3719 104.634 31.2497C104.503 31.1274 104.438 30.9806 104.438 30.8094C104.438 30.6351 104.503 30.4884 104.634 30.3661C104.766 30.2438 104.922 30.1826 105.108 30.1826C105.291 30.1826 105.447 30.2438 105.576 30.3661C105.707 30.4884 105.772 30.6351 105.772 30.8094C105.772 30.9806 105.707 31.1274 105.576 31.2497C105.447 31.3719 105.291 31.4331 105.108 31.4331ZM104.53 37.0129V32.1271H105.683V37.0129H104.53Z" fill="#004070"/>
<path d="M109.241 37.1077C108.752 37.1077 108.327 37.0037 107.973 36.7989C107.618 36.5941 107.343 36.3036 107.153 35.9275C106.964 35.5515 106.866 35.1082 106.866 34.5976C106.866 34.0962 106.961 33.6528 107.153 33.2737C107.343 32.8946 107.612 32.595 107.96 32.384C108.306 32.17 108.712 32.063 109.18 32.063C109.581 32.063 109.951 32.1486 110.29 32.3229C110.629 32.4971 110.901 32.7631 111.106 33.127C111.311 33.4908 111.412 33.9586 111.412 34.5303V34.8819H108.009C108.015 35.3008 108.131 35.6249 108.358 35.8603C108.584 36.0926 108.884 36.2088 109.257 36.2088C109.504 36.2088 109.718 36.1538 109.902 36.0468C110.082 35.9398 110.214 35.7838 110.293 35.579L111.369 35.6982C111.268 36.1232 111.03 36.4626 110.66 36.7194C110.284 36.9793 109.813 37.1077 109.241 37.1077ZM108.015 34.1084H110.311C110.308 33.7751 110.204 33.5 110.003 33.2859C109.798 33.0689 109.529 32.9619 109.199 32.9619C108.856 32.9619 108.575 33.075 108.361 33.3012C108.147 33.5275 108.031 33.7965 108.015 34.1084Z" fill="#004070"/>
<path d="M112.604 37.0127V32.127H113.72V32.9402H113.772C113.86 32.6559 114.013 32.4388 114.23 32.2859C114.447 32.1331 114.695 32.0566 114.979 32.0566C115.111 32.0566 115.233 32.0719 115.343 32.1056C115.453 32.1361 115.551 32.182 115.637 32.237L115.282 33.1909C115.221 33.1604 115.154 33.1359 115.077 33.1176C115.004 33.0992 114.918 33.09 114.826 33.09C114.527 33.09 114.273 33.1879 114.068 33.3836C113.863 33.5792 113.762 33.833 113.762 34.1418V37.0157H112.604V37.0127Z" fill="#004070"/>
<path d="M120.194 30.4976V37.0129H119.014V30.4976H120.194Z" fill="#004070"/>
<path d="M122.79 34.1481V37.0129H121.637V32.1272H122.738V32.9588H122.796C122.909 32.6867 123.089 32.4696 123.334 32.3076C123.581 32.1455 123.887 32.063 124.251 32.063C124.755 32.063 125.162 32.222 125.468 32.543C125.774 32.864 125.926 33.3165 125.923 33.9005V37.0129H124.771V34.0809C124.771 33.7537 124.685 33.5 124.517 33.3135C124.349 33.13 124.117 33.0383 123.82 33.0383C123.517 33.0383 123.27 33.1361 123.077 33.3288C122.887 33.5214 122.79 33.7965 122.79 34.1481Z" fill="#004070"/>
<path d="M128.95 37.0985C128.564 37.0985 128.222 37.0007 127.919 36.8019C127.616 36.6032 127.375 36.3189 127.201 35.9428C127.023 35.5667 126.938 35.1112 126.938 34.5761C126.938 34.0319 127.026 33.5764 127.207 33.2034C127.387 32.8304 127.629 32.546 127.934 32.3534C128.24 32.1608 128.58 32.0629 128.956 32.0629C129.243 32.0629 129.482 32.1119 129.665 32.2066C129.848 32.3045 129.995 32.4176 130.105 32.5552C130.215 32.6897 130.298 32.8151 130.356 32.9343H130.402V30.4976H131.557V37.0129H130.426V36.2424H130.356C130.298 36.3617 130.209 36.487 130.099 36.6185C129.986 36.7499 129.839 36.8631 129.653 36.9579C129.463 37.0526 129.231 37.0985 128.95 37.0985ZM129.271 36.1538C129.637 36.1538 129.922 36.007 130.12 35.7165C130.319 35.4261 130.42 35.0439 130.42 34.57C130.42 34.0961 130.322 33.717 130.124 33.4327C129.925 33.1483 129.64 33.0077 129.271 33.0077C128.885 33.0077 128.598 33.1544 128.402 33.448C128.207 33.7415 128.109 34.1145 128.109 34.57C128.109 35.0286 128.207 35.4077 128.405 35.7074C128.604 36.0039 128.891 36.1538 129.271 36.1538Z" fill="#004070"/>
<path d="M133.578 31.4331C133.394 31.4331 133.235 31.3719 133.104 31.2497C132.972 31.1274 132.908 30.9806 132.908 30.8094C132.908 30.6351 132.972 30.4884 133.104 30.3661C133.235 30.2438 133.391 30.1826 133.578 30.1826C133.761 30.1826 133.917 30.2438 134.048 30.3661C134.18 30.4884 134.244 30.6351 134.244 30.8094C134.244 30.9806 134.18 31.1274 134.048 31.2497C133.914 31.3719 133.758 31.4331 133.578 31.4331ZM132.997 37.0129V32.1271H134.149V37.0129H132.997Z" fill="#004070"/>
<path d="M136.953 37.1106C136.485 37.1106 136.097 36.9853 135.785 36.7346C135.473 36.4839 135.317 36.1201 135.317 35.64C135.317 35.2731 135.406 34.9888 135.583 34.787C135.76 34.5852 135.99 34.4385 136.274 34.3437C136.558 34.252 136.858 34.1878 137.173 34.1541C137.604 34.1083 137.913 34.0655 138.099 34.0227C138.286 33.9829 138.38 33.879 138.38 33.7139V33.6955C138.38 33.4571 138.31 33.2705 138.166 33.1391C138.026 33.0076 137.821 32.9403 137.552 32.9403C137.271 32.9403 137.047 33.0015 136.882 33.1238C136.717 33.2461 136.607 33.3928 136.549 33.561L135.473 33.4081C135.601 32.9618 135.849 32.6254 136.219 32.3992C136.589 32.1729 137.032 32.0598 137.543 32.0598C137.775 32.0598 138.01 32.0873 138.243 32.1424C138.475 32.1974 138.689 32.2891 138.885 32.4175C139.078 32.5459 139.233 32.7172 139.353 32.9342C139.472 33.1513 139.53 33.4204 139.53 33.7414V37.0128H138.423V36.3402H138.383C138.28 36.545 138.111 36.7254 137.876 36.8783C137.647 37.0342 137.338 37.1106 136.953 37.1106ZM137.252 36.2668C137.601 36.2668 137.876 36.1659 138.081 35.9672C138.286 35.7684 138.387 35.533 138.387 35.2609V34.6831C138.338 34.7228 138.249 34.7595 138.117 34.7901C137.986 34.8207 137.848 34.8482 137.702 34.8696C137.555 34.891 137.433 34.9093 137.329 34.9246C137.072 34.9613 136.858 35.0316 136.687 35.1356C136.515 35.2395 136.43 35.4046 136.43 35.6247C136.43 35.8357 136.506 35.9978 136.662 36.1048C136.815 36.2118 137.014 36.2668 137.252 36.2668Z" fill="#004070"/>
</svg>
