<svg width="282" height="60" viewBox="0 0 282 60" fill="none" xmlns="http://www.w3.org/2000/svg">
<path d="M11.181 21.8425C17.0032 21.8425 21.723 17.116 21.723 11.2855C21.723 5.45505 17.0032 0.728516 11.181 0.728516C5.35876 0.728516 0.638916 5.45505 0.638916 11.2855C0.638916 17.116 5.35876 21.8425 11.181 21.8425Z" fill="#F37358"/>
<path d="M34.9805 19.2027C39.3472 19.2027 42.8871 15.6578 42.8871 11.2849C42.8871 6.91209 39.3472 3.36719 34.9805 3.36719C30.6139 3.36719 27.074 6.91209 27.074 11.2849C27.074 15.6578 30.6139 19.2027 34.9805 19.2027Z" fill="#F37358"/>
<path d="M54.1477 17.2038C57.4117 17.2038 60.0577 14.5541 60.0577 11.2855C60.0577 8.01691 57.4117 5.36719 54.1477 5.36719C50.8838 5.36719 48.2378 8.01691 48.2378 11.2855C48.2378 14.5541 50.8838 17.2038 54.1477 17.2038Z" fill="#F37358"/>
<path d="M73.2354 59.8313C63.7316 59.8313 56.2244 52.9533 56.2244 42.3963C56.2244 30.3197 65.4886 22.082 74.9126 22.082C81.701 22.082 87.2915 25.761 87.2915 32.0792C87.2915 33.8387 86.413 35.1983 84.0171 35.1983H65.8879C65.8081 35.8381 65.8081 36.5579 65.8081 37.2777C65.8081 47.2749 71.3187 53.1932 79.3051 53.1932C82.6594 53.1932 85.2949 51.9936 87.7707 49.1944L88.17 49.4343C85.9338 55.5126 79.6245 59.8313 73.2354 59.8313ZM66.1275 33.7587L76.7494 33.3588C78.3467 33.2789 78.8259 32.3991 78.8259 31.2794C78.8259 26.8807 77.2286 24.3214 73.9542 24.3214C70.0408 24.3214 67.0859 28.3203 66.1275 33.7587Z" fill="#F37358"/>
<path d="M106.139 59.0313C104.382 58.9513 101.348 58.8713 98.2329 58.8713C95.1182 58.8713 92.0833 58.9513 90.3263 59.0313V57.9116L91.125 57.8316C93.441 57.5117 93.441 57.0319 93.441 50.8736V10.645C93.441 9.6053 93.441 8.56559 92.4827 7.52588L89.927 4.6467V4.32679C93.9202 3.36706 99.5107 1.60756 103.105 0.167969L103.504 0.327923C103.344 2.00745 103.105 6.80609 103.105 15.6836V50.7936C103.105 56.9519 103.105 57.4317 105.101 57.6717L106.219 57.8316V59.0313H106.139Z" fill="#F37358"/>
<path d="M124.588 59.0313C122.831 58.9513 119.796 58.8713 116.681 58.8713C113.567 58.8713 110.532 58.9513 108.775 59.0313V57.9116L109.573 57.8316C111.89 57.5117 111.89 57.0319 111.89 50.8736V10.645C111.89 9.6053 111.89 8.56559 110.931 7.52588L108.375 4.6467V4.32679C112.369 3.36706 117.959 1.60756 121.553 0.167969L121.952 0.327923C121.793 2.00745 121.553 6.80609 121.553 15.6836V50.7936C121.553 56.9519 121.553 57.4317 123.55 57.6717L124.668 57.8316V59.0313H124.588Z" fill="#F37358"/>
<path d="M135.29 43.8353L144.474 39.8365V32.5585C144.474 30.1592 142.398 27.2 137.606 27.2C135.21 27.2 134.012 28.2398 134.012 30.3192C134.012 31.9987 134.252 33.8382 134.651 35.1178C133.533 35.5977 129.54 36.3974 128.422 36.3974C128.102 36.3974 127.863 36.2375 127.863 35.6776C127.863 30.799 135.929 22.1615 143.516 22.1615C147.749 22.0815 154.138 24.0809 154.138 29.6793C154.138 35.5977 153.738 44.955 153.738 49.8336C153.738 52.3929 154.777 53.6726 156.933 53.6726C158.131 53.6726 159.01 53.2727 159.648 52.7128L159.888 52.8728C159.409 56.3918 156.214 59.5909 152.381 59.5909C148.228 59.5909 145.592 57.4315 144.394 54.1524C142.478 56.3118 139.762 59.5109 135.609 59.5109C131.057 59.5109 127.463 56.3118 127.463 51.2732C127.383 47.2744 130.418 45.8348 135.29 43.8353ZM140.162 43.8353C138.325 44.955 136.967 46.3146 136.967 48.714C136.967 52.153 138.804 53.9125 141.519 53.9125C142.637 53.9125 143.436 53.6726 144.315 53.2727L144.394 41.0361L140.162 43.8353Z" fill="#F37358"/>
<path d="M180.812 22.082C185.924 22.082 191.514 24.4014 191.514 28.6402C191.514 30.7996 189.597 32.3991 187.601 32.3991C182.33 32.3991 183.927 24.4814 179.295 24.4814C174.263 24.4814 170.35 29.9198 170.35 37.3577C170.35 47.4348 175.621 53.2732 183.607 53.2732C186.882 53.2732 189.677 52.0735 192.073 49.1944L192.472 49.4343C190.156 55.5126 184.087 59.8313 177.857 59.8313C168.353 59.8313 160.846 52.9533 160.846 42.3963C160.766 30.4797 170.51 22.082 180.812 22.082Z" fill="#F37358"/>
<path d="M233.123 40.7967C233.123 52.0735 223.54 59.8313 213.636 59.8313C203.813 59.8313 194.15 52.3135 194.15 41.1966C194.15 29.9198 203.813 22.082 213.636 22.082C223.54 22.082 233.123 29.6799 233.123 40.7967ZM222.262 41.5165C222.262 31.5993 219.067 23.9215 213.636 23.9215C208.286 23.9215 205.091 30.3997 205.091 40.4768C205.091 50.314 208.286 58.0718 213.636 58.0718C219.147 58.0718 222.262 51.5937 222.262 41.5165Z" fill="#F37358"/>
<path d="M253.009 59.0313C250.773 58.9513 247.419 58.8713 243.985 58.8713C240.551 58.8713 237.196 58.9513 235.2 59.0313V57.9116L235.998 57.8316C238.314 57.5117 238.314 57.0318 238.314 50.8736V33.2786C238.314 32.2389 238.235 31.2791 237.356 30.1594L235.439 27.2803V26.8804C239.273 25.6807 244.544 23.5213 247.898 21.8418L248.297 22.0018C248.138 23.6813 247.978 27.3602 247.978 29.9995V30.7993C251.093 26.0006 253.968 22.1617 257.721 22.1617C260.836 22.1617 262.673 24.3211 262.673 27.4402C262.673 30.6393 260.117 32.3988 257.961 32.3988C254.926 32.3988 254.287 29.5996 251.811 29.5996C250.454 29.5996 249.256 30.4793 247.978 31.759V50.7136C247.978 56.8719 248.058 57.3517 250.054 57.5117L253.089 57.7516V59.0313H253.009Z" fill="#F37358"/>
<path d="M262.833 15.9244C262.833 12.0854 265.628 9.36621 269.142 9.36621C272.656 9.36621 275.451 12.0854 275.451 15.9244C275.451 19.7633 272.656 22.4825 269.142 22.4825C265.628 22.4825 262.833 19.7633 262.833 15.9244ZM275.211 15.9244C275.211 12.5653 272.496 9.68612 269.142 9.68612C265.708 9.68612 263.072 12.4853 263.072 15.9244C263.072 19.3634 265.708 22.1626 269.142 22.1626C272.576 22.1626 275.211 19.3634 275.211 15.9244ZM266.027 19.7633V19.5233C266.666 19.4434 266.906 19.3634 266.906 19.0435V12.8852C266.906 12.4853 266.746 12.4053 266.107 12.4053V12.1654H269.062C271.458 12.1654 271.937 13.2051 271.937 14.1649C271.937 15.2845 271.059 16.0043 269.621 16.3242L271.937 19.1234C272.177 19.4434 272.576 19.4434 272.895 19.5233V19.7633H271.138C271.138 19.6033 271.059 19.3634 270.819 19.1234L268.742 16.4042H267.944V19.0435C267.944 19.3634 268.183 19.4434 268.902 19.5233V19.7633H266.027ZM267.784 16.2443H268.263C270.34 16.2443 270.819 15.2046 270.819 14.1649C270.819 13.2051 270.26 12.4853 268.982 12.4853H267.784V16.2443Z" fill="#F37358"/>
</svg>
